<svg width="496" height="176" viewBox="0 0 496 176" fill="none" xmlns="http://www.w3.org/2000/svg">
<rect width="496" height="176" fill="#1E1E1E"/>
<path d="M135 135L67.5 67.5H118.125L185.625 135H135ZM0 135V0H168.75V33.75H33.75V101.25H84.375L118.125 135H0Z" fill="white"/>
<path d="M402 99.6H495.8L469.2 134H402C355.6 134 321.4 104.6 321.4 65.8C321.4 26.6 355.6 0.199994 402 0.199994H495.8L469.2 35H402C379.6 35 362.8 48.4 362.8 67.6C362.8 86.6 379.4 99.6 402 99.6Z" fill="white"/>
<path d="M292.08 83.66L279.54 100H239.735C219.69 100 213.99 92.02 213.99 81.475C213.99 73.875 218.36 68.935 223.965 67.32C219.5 65.705 215.225 61.525 215.225 54.02C215.225 42.335 225.01 36.445 240.21 36.445H266.81L254.175 52.975H239.355C236.6 52.975 233.94 53.925 233.94 57.06C233.94 60.29 236.505 61.335 239.355 61.335H290.94L280.775 74.92H270.325V83.66H292.08ZM233.56 79.195C233.56 82.14 235.46 83.66 239.64 83.66H254.46V74.92H239.64C235.46 74.92 233.56 76.44 233.56 79.195Z" fill="white"/>
<path d="M111.092 175H106.52V148.828H111.092V175ZM138.51 174.352L120.114 155.848V175H115.758V151.24C115.758 149.548 116.658 148.504 118.098 148.504C118.782 148.504 119.358 148.756 120.042 149.44L138.51 167.764V148.612H142.866V172.588C142.866 174.316 141.93 175.324 140.598 175.324C139.842 175.324 139.158 175 138.51 174.352ZM169.939 174.352L151.543 155.848V175H147.187V151.24C147.187 149.548 148.087 148.504 149.527 148.504C150.211 148.504 150.787 148.756 151.471 149.44L169.939 167.764V148.612H174.295V172.588C174.295 174.316 173.359 175.324 172.027 175.324C171.271 175.324 170.587 175 169.939 174.352ZM197.049 175H190.677C183.369 175 177.969 169.24 177.969 161.644C177.969 153.94 183.369 148.828 190.677 148.828H197.049C204.609 148.828 209.865 154.048 209.865 161.644C209.865 169.24 204.501 175 197.049 175ZM190.677 170.428H197.049C201.873 170.428 205.293 166.792 205.293 161.86C205.293 156.928 201.873 153.4 197.049 153.4H190.677C185.997 153.4 182.541 156.892 182.541 161.86C182.541 166.792 185.961 170.428 190.677 170.428ZM223.368 173.884L208.32 148.828H213.9L225.78 168.988L237.624 148.828H242.88L227.796 173.884C227.256 174.784 226.536 175.36 225.6 175.36C224.592 175.36 223.908 174.784 223.368 173.884ZM270.373 175H264.865L260.941 168.412H248.557L250.717 164.704H258.745L252.913 154.912L241.033 175H235.813L250.861 149.944C251.401 149.044 252.085 148.468 253.093 148.468C254.101 148.468 254.749 149.044 255.289 149.944L270.373 175ZM281.509 175H276.937V153.4H267.001V148.828H291.445V153.4H281.509V175ZM299.283 175H294.711V148.828H299.283V175ZM322.381 175H316.009C308.701 175 303.301 169.24 303.301 161.644C303.301 153.94 308.701 148.828 316.009 148.828H322.381C329.941 148.828 335.197 154.048 335.197 161.644C335.197 169.24 329.833 175 322.381 175ZM316.009 170.428H322.381C327.205 170.428 330.625 166.792 330.625 161.86C330.625 156.928 327.205 153.4 322.381 153.4H316.009C311.329 153.4 307.873 156.892 307.873 161.86C307.873 166.792 311.293 170.428 316.009 170.428ZM361.541 174.352L343.145 155.848V175H338.789V151.24C338.789 149.548 339.689 148.504 341.129 148.504C341.813 148.504 342.389 148.756 343.073 149.44L361.541 167.764V148.612H365.897V172.588C365.897 174.316 364.961 175.324 363.629 175.324C362.873 175.324 362.189 175 361.541 174.352ZM389.947 175H370.327V170.428H389.947C392.395 170.428 393.763 169.06 393.763 167.008C393.763 164.776 392.395 163.624 389.947 163.624H377.923C372.991 163.624 369.931 160.492 369.931 156.172C369.931 151.96 372.775 148.828 377.995 148.828H396.787V153.4H377.995C375.907 153.4 374.683 154.624 374.683 156.604C374.683 158.584 375.943 159.772 377.959 159.772H389.947C395.239 159.772 398.083 162.256 398.083 167.332C398.083 171.724 395.419 175 389.947 175Z" fill="white"/>
</svg>
